M48
;GenerationSoftware,Autodesk,EAGLE,9.4.2*%
;CreationDate,2019-06-25T07:56:09Z*%
FMAT,2
ICI,OFF
METRIC,TZ,000.000
T3C0.813
T2C1.200
T1C1.400
%
G90
M71
T1
X-9000Y18000
X-22000Y0
X9000Y18000
X-18000Y9000
X18000Y9000
X9000Y-18000
X-18000Y-9000
X18000Y-9000
X-9000Y-18000
X22000Y0
T2
X0Y-16230
X0Y-18770
X-11472Y-11472
X-13268Y-13268
X-16230Y0
X-18770Y0
X-11472Y11472
X-13268Y13268
X0Y16230
X0Y18770
X11472Y11472
X13268Y13268
X16230Y0
X18770Y0
X11472Y-11472
X13268Y-13268
T3
X-5000Y-7920
X-5000Y-18080
X-7920Y-5000
X-18080Y-5000
X-7920Y5000
X-18080Y5000
X-5000Y7920
X-5000Y18080
X5000Y7920
X5000Y18080
X7920Y5000
X18080Y5000
X7920Y-5000
X18080Y-5000
X5000Y-7920
X5000Y-18080
X-8270Y0
X-5730Y0
X0Y9270
X0Y6730
X9270Y0
X6730Y0
X0Y-9270
X0Y-6730
X4898Y-4898
X3102Y-3102
X-4898Y-4898
X-3102Y-3102
X-4898Y4898
X-3102Y3102
X4898Y4898
X3102Y3102
M30