G04 EAGLE Gerber RS-274X export*
G75*
%MOMM*%
%FSLAX34Y34*%
%LPD*%
%INTop Copper*%
%IPPOS*%
%AMOC8*
5,1,8,0,0,1.08239X$1,22.5*%
G01*
%ADD10C,1.900000*%
%ADD11C,2.540000*%
%ADD12P,1.814519X8X292.500000*%
%ADD13P,1.814519X8X202.500000*%
%ADD14P,1.814519X8X112.500000*%
%ADD15P,1.814519X8X22.500000*%
%ADD16P,1.814519X8X157.500000*%
%ADD17P,1.814519X8X67.500000*%
%ADD18P,1.814519X8X337.500000*%
%ADD19P,1.814519X8X247.500000*%
%ADD20C,0.152400*%


D10*
X0Y-162300D03*
X0Y-187700D03*
X-114720Y-114720D03*
X-132680Y-132680D03*
X-162300Y0D03*
X-187700Y0D03*
X-114720Y114720D03*
X-132680Y132680D03*
X0Y162300D03*
X0Y187700D03*
X114720Y114720D03*
X132680Y132680D03*
X162300Y0D03*
X187700Y0D03*
X114720Y-114720D03*
X132680Y-132680D03*
D11*
X-90000Y167300D02*
X-90000Y192700D01*
X-220000Y12700D02*
X-220000Y-12700D01*
X90000Y167300D02*
X90000Y192700D01*
X-167300Y90000D02*
X-192700Y90000D01*
X167300Y90000D02*
X192700Y90000D01*
X90000Y-167300D02*
X90000Y-192700D01*
X-167300Y-90000D02*
X-192700Y-90000D01*
X167300Y-90000D02*
X192700Y-90000D01*
X-90000Y-167300D02*
X-90000Y-192700D01*
X220000Y-12700D02*
X220000Y12700D01*
D12*
X-50000Y-79200D03*
X-50000Y-180800D03*
D13*
X-79200Y-50000D03*
X-180800Y-50000D03*
X-79200Y50000D03*
X-180800Y50000D03*
D14*
X-50000Y79200D03*
X-50000Y180800D03*
X50000Y79200D03*
X50000Y180800D03*
D15*
X79200Y50000D03*
X180800Y50000D03*
X79200Y-50000D03*
X180800Y-50000D03*
D12*
X50000Y-79200D03*
X50000Y-180800D03*
D15*
X-82700Y0D03*
X-57300Y0D03*
D12*
X0Y92700D03*
X0Y67300D03*
D13*
X92700Y0D03*
X67300Y0D03*
D14*
X0Y-92700D03*
X0Y-67300D03*
D16*
X48980Y-48980D03*
X31020Y-31020D03*
D17*
X-48980Y-48980D03*
X-31020Y-31020D03*
D18*
X-48980Y48980D03*
X-31020Y31020D03*
D19*
X48980Y48980D03*
X31020Y31020D03*
D20*
X-53848Y-176952D02*
X-50800Y-180000D01*
X-90000Y-180000D01*
X-50800Y-180000D02*
X-50000Y-180800D01*
X-6900Y-180800D01*
X0Y-187700D01*
X-180000Y-80000D02*
X-180800Y-79200D01*
X-180000Y-80000D02*
X-180000Y-90000D01*
X-180000Y-50800D02*
X-180800Y-50000D01*
X-180000Y-50800D02*
X-180000Y-80000D01*
X-180000Y-90000D02*
X-137320Y-132680D01*
X-132680Y-132680D01*
X-180000Y50800D02*
X-180000Y90000D01*
X-180000Y50800D02*
X-180800Y50000D01*
X-180800Y6900D01*
X-187700Y0D01*
X-95361Y170000D02*
X-90000Y170000D01*
X-50400Y180400D02*
X-50000Y180800D01*
X-50400Y180400D02*
X-50800Y180000D01*
X-90000Y175361D02*
X-132680Y132680D01*
X-90000Y175361D02*
X-90000Y180000D01*
X-89600Y180400D01*
X-50400Y180400D01*
X50000Y180800D02*
X50800Y180000D01*
X43100Y187700D02*
X0Y187700D01*
X43100Y187700D02*
X50000Y180800D01*
X89200Y180800D01*
X90000Y180000D01*
X180800Y89200D02*
X180800Y50000D01*
X180800Y89200D02*
X180000Y90000D01*
X175361Y90000D01*
X132680Y132680D01*
X180800Y-89200D02*
X180000Y-90000D01*
X180000Y-50800D01*
X180800Y-50000D01*
X180800Y-6900D01*
X187700Y0D01*
X80800Y-180800D02*
X90000Y-190000D01*
X90000Y-200000D01*
X89200Y-180800D02*
X50000Y-180800D01*
X89200Y-180800D02*
X90000Y-180000D01*
X132680Y-137320D02*
X132680Y-132680D01*
X132680Y-137320D02*
X90000Y-180000D01*
X-1350Y91350D02*
X0Y92700D01*
X-1350Y91350D02*
X-43720Y48980D01*
X-48980Y48980D01*
X-82700Y15261D01*
X-82700Y0D01*
X-82700Y-15261D01*
X-48980Y-48980D01*
X-5261Y-92700D01*
X0Y-92700D01*
X43720Y-48980D01*
X48980Y-48980D01*
X92700Y-5261D01*
X92700Y0D01*
X92700Y5261D02*
X48980Y48980D01*
X92700Y5261D02*
X92700Y0D01*
X6611Y91350D02*
X0Y91350D01*
X-1350Y91350D01*
X-82700Y0D02*
X-160000Y0D01*
X-48980Y-48980D02*
X-114720Y-114720D01*
X0Y-92700D02*
X0Y-162300D01*
X48980Y-48980D02*
X114720Y-114720D01*
X92700Y0D02*
X162300Y0D01*
X-162300Y0D02*
X-162300Y-12300D01*
X-170000Y-20000D01*
X-200000Y-20000D01*
X-210000Y-10000D01*
X48980Y48980D02*
X114720Y114720D01*
X48980Y48980D02*
X48980Y48980D01*
X0Y91350D02*
X0Y162300D01*
X-48980Y48980D02*
X-114720Y114720D01*
X49200Y-79200D02*
X50000Y-79200D01*
X236510Y-29286D02*
X236510Y-29286D01*
X231118Y-58129D01*
X222223Y-86090D01*
X209959Y-112746D01*
X194513Y-137693D01*
X178521Y-157566D01*
X177173Y-157007D01*
X172827Y-157007D01*
X168813Y-158670D01*
X158670Y-168813D01*
X157007Y-172827D01*
X157007Y-177173D01*
X157572Y-178536D01*
X155053Y-180978D01*
X131637Y-198661D01*
X106227Y-213332D01*
X79205Y-224769D01*
X50984Y-232799D01*
X21989Y-237299D01*
X-7339Y-238203D01*
X-36556Y-235496D01*
X-65218Y-229218D01*
X-92892Y-219467D01*
X-119158Y-206388D01*
X-143617Y-190180D01*
X-157477Y-178306D01*
X-157007Y-177173D01*
X-157007Y-172827D01*
X-158670Y-168813D01*
X-168813Y-158670D01*
X-172827Y-157007D01*
X-177173Y-157007D01*
X-178309Y-157478D01*
X-185667Y-149406D01*
X-202620Y-125457D01*
X-216502Y-99607D01*
X-227101Y-72246D01*
X-234258Y-43790D01*
X-237864Y-14671D01*
X-237864Y14671D01*
X-234258Y43790D01*
X-227101Y72246D01*
X-216502Y99607D01*
X-202620Y125457D01*
X-185667Y149406D01*
X-178309Y157478D01*
X-177173Y157007D01*
X-172827Y157007D01*
X-168813Y158670D01*
X-158670Y168813D01*
X-157007Y172827D01*
X-157007Y177173D01*
X-157477Y178306D01*
X-143617Y190180D01*
X-119158Y206388D01*
X-92892Y219467D01*
X-65218Y229218D01*
X-36556Y235496D01*
X-36556Y235496D01*
X-7339Y238203D01*
X21989Y237299D01*
X50984Y232799D01*
X79205Y224769D01*
X106227Y213332D01*
X131637Y198661D01*
X155053Y180978D01*
X157572Y178536D01*
X157007Y177173D01*
X157007Y172827D01*
X158670Y168813D01*
X168813Y158670D01*
X172827Y157007D01*
X177173Y157007D01*
X178521Y157566D01*
X194513Y137693D01*
X209959Y112746D01*
X222223Y86090D01*
X231118Y58129D01*
X236510Y29286D01*
X238316Y0D01*
X236510Y-29286D01*
X38743Y22219D02*
X31020Y29942D01*
X32097Y31020D01*
X39820Y23297D01*
X42704Y26180D01*
X42704Y35859D01*
X39820Y38743D01*
X32097Y31020D01*
X31020Y32097D01*
X38743Y39820D01*
X35859Y42704D01*
X26180Y42704D01*
X23297Y39820D01*
X31020Y32097D01*
X29942Y31020D01*
X22219Y38743D01*
X19336Y35859D01*
X19336Y26180D01*
X22219Y23297D01*
X29942Y31020D01*
X31020Y29942D01*
X23297Y22219D01*
X26180Y19336D01*
X35859Y19336D01*
X38743Y22219D01*
X-31020Y-29942D02*
X-38743Y-22219D01*
X-31020Y-29942D02*
X-32097Y-31020D01*
X-39820Y-23297D01*
X-42704Y-26180D01*
X-42704Y-35859D01*
X-39820Y-38743D01*
X-32097Y-31020D01*
X-31020Y-32097D01*
X-38743Y-39820D01*
X-35859Y-42704D01*
X-26180Y-42704D01*
X-23297Y-39820D01*
X-31020Y-32097D01*
X-29942Y-31020D01*
X-22219Y-38743D01*
X-19336Y-35859D01*
X-19336Y-26180D01*
X-22219Y-23297D01*
X-29942Y-31020D01*
X-31020Y-29942D01*
X-23297Y-22219D01*
X-26180Y-19336D01*
X-35859Y-19336D01*
X-38743Y-22219D01*
X-4840Y-78984D02*
X-762Y-78984D01*
X-762Y-68062D01*
X762Y-68062D01*
X762Y-78984D01*
X4840Y-78984D01*
X11684Y-72140D01*
X11684Y-68062D01*
X762Y-68062D01*
X762Y-66538D01*
X11684Y-66538D01*
X11684Y-62460D01*
X4840Y-55616D01*
X762Y-55616D01*
X762Y-66538D01*
X-762Y-66538D01*
X-762Y-55616D01*
X-4840Y-55616D01*
X-11684Y-62460D01*
X-11684Y-66538D01*
X-762Y-66538D01*
X-762Y-68062D01*
X-11684Y-68062D01*
X-11684Y-72140D01*
X-4840Y-78984D01*
X-4840Y55616D02*
X-762Y55616D01*
X-762Y66538D01*
X762Y66538D01*
X762Y55616D01*
X4840Y55616D01*
X11684Y62460D01*
X11684Y66538D01*
X762Y66538D01*
X762Y68062D01*
X11684Y68062D01*
X11684Y72140D01*
X4840Y78984D01*
X762Y78984D01*
X762Y68062D01*
X-762Y68062D01*
X-762Y78984D01*
X-4840Y78984D01*
X-11684Y72140D01*
X-11684Y68062D01*
X-762Y68062D01*
X-762Y66538D01*
X-11684Y66538D01*
X-11684Y62460D01*
X-4840Y55616D01*
X45160Y-90884D02*
X49238Y-90884D01*
X49238Y-79962D01*
X50762Y-79962D01*
X50762Y-90884D01*
X54840Y-90884D01*
X61684Y-84040D01*
X61684Y-79962D01*
X50762Y-79962D01*
X50762Y-78438D01*
X61684Y-78438D01*
X61684Y-74360D01*
X54840Y-67516D01*
X50762Y-67516D01*
X50762Y-78438D01*
X49238Y-78438D01*
X49238Y-67516D01*
X45160Y-67516D01*
X38316Y-74360D01*
X38316Y-78438D01*
X49238Y-78438D01*
X49238Y-79962D01*
X38316Y-79962D01*
X38316Y-84040D01*
X45160Y-90884D01*
X79962Y50762D02*
X79962Y61684D01*
X79962Y50762D02*
X78438Y50762D01*
X78438Y61684D01*
X74360Y61684D01*
X67516Y54840D01*
X67516Y50762D01*
X78438Y50762D01*
X78438Y49238D01*
X67516Y49238D01*
X67516Y45160D01*
X74360Y38316D01*
X78438Y38316D01*
X78438Y49238D01*
X79962Y49238D01*
X79962Y38316D01*
X84040Y38316D01*
X90884Y45160D01*
X90884Y49238D01*
X79962Y49238D01*
X79962Y50762D01*
X90884Y50762D01*
X90884Y54840D01*
X84040Y61684D01*
X79962Y61684D01*
X-50762Y67516D02*
X-54840Y67516D01*
X-50762Y67516D02*
X-50762Y78438D01*
X-49238Y78438D01*
X-49238Y67516D01*
X-45160Y67516D01*
X-38316Y74360D01*
X-38316Y78438D01*
X-49238Y78438D01*
X-49238Y79962D01*
X-38316Y79962D01*
X-38316Y84040D01*
X-45160Y90884D01*
X-49238Y90884D01*
X-49238Y79962D01*
X-50762Y79962D01*
X-50762Y90884D01*
X-54840Y90884D01*
X-61684Y84040D01*
X-61684Y79962D01*
X-50762Y79962D01*
X-50762Y78438D01*
X-61684Y78438D01*
X-61684Y74360D01*
X-54840Y67516D01*
X-78438Y-38316D02*
X-78438Y-49238D01*
X-79962Y-49238D01*
X-79962Y-38316D01*
X-84040Y-38316D01*
X-90884Y-45160D01*
X-90884Y-49238D01*
X-79962Y-49238D01*
X-79962Y-50762D01*
X-90884Y-50762D01*
X-90884Y-54840D01*
X-84040Y-61684D01*
X-79962Y-61684D01*
X-79962Y-50762D01*
X-78438Y-50762D01*
X-78438Y-61684D01*
X-74360Y-61684D01*
X-67516Y-54840D01*
X-67516Y-50762D01*
X-78438Y-50762D01*
X-78438Y-49238D01*
X-67516Y-49238D01*
X-67516Y-45160D01*
X-74360Y-38316D01*
X-78438Y-38316D01*
X218741Y-28702D02*
X219238Y-28702D01*
X219238Y-762D01*
X220762Y-762D01*
X220762Y-28702D01*
X221259Y-28702D01*
X223747Y-28308D01*
X226143Y-27530D01*
X228387Y-26386D01*
X230425Y-24906D01*
X232206Y-23125D01*
X233686Y-21087D01*
X234830Y-18843D01*
X235608Y-16447D01*
X236002Y-13959D01*
X236002Y-762D01*
X220762Y-762D01*
X220762Y762D01*
X236002Y762D01*
X236002Y13959D01*
X235608Y16447D01*
X234830Y18843D01*
X233686Y21087D01*
X232206Y23125D01*
X230425Y24906D01*
X228387Y26386D01*
X226143Y27530D01*
X223747Y28308D01*
X221259Y28702D01*
X220762Y28702D01*
X220762Y762D01*
X219238Y762D01*
X219238Y28702D01*
X218741Y28702D01*
X216253Y28308D01*
X213857Y27530D01*
X211613Y26386D01*
X209575Y24906D01*
X207794Y23125D01*
X206314Y21087D01*
X205170Y18843D01*
X204392Y16447D01*
X203998Y13959D01*
X203998Y762D01*
X219238Y762D01*
X219238Y-762D01*
X203998Y-762D01*
X203998Y-13959D01*
X204392Y-16447D01*
X205170Y-18843D01*
X206314Y-21087D01*
X207794Y-23125D01*
X209575Y-24906D01*
X211613Y-26386D01*
X213857Y-27530D01*
X216253Y-28308D01*
X218741Y-28702D01*
X106002Y164117D02*
X106002Y195883D01*
X103566Y201764D01*
X99064Y206266D01*
X93183Y208702D01*
X86817Y208702D01*
X80936Y206266D01*
X76434Y201764D01*
X73998Y195883D01*
X73998Y184864D01*
X61684Y184864D01*
X61684Y185640D01*
X54840Y192484D01*
X45160Y192484D01*
X44440Y191764D01*
X12173Y191764D01*
X10853Y194952D01*
X7252Y198553D01*
X2546Y200502D01*
X-2546Y200502D01*
X-7252Y198553D01*
X-10853Y194952D01*
X-12802Y190246D01*
X-12802Y185154D01*
X-10853Y180448D01*
X-7252Y176847D01*
X-2793Y175000D01*
X-7252Y173153D01*
X-10853Y169552D01*
X-12802Y164846D01*
X-12802Y159754D01*
X-10853Y155048D01*
X-7252Y151447D01*
X-4064Y150127D01*
X-4064Y104384D01*
X-4840Y104384D01*
X-11684Y97540D01*
X-11684Y87860D01*
X-11135Y87312D01*
X-40962Y57485D01*
X-44141Y60664D01*
X-53820Y60664D01*
X-54368Y60116D01*
X-103238Y108985D01*
X-101918Y112173D01*
X-101918Y117266D01*
X-103867Y121971D01*
X-107468Y125573D01*
X-112173Y127522D01*
X-117266Y127522D01*
X-121725Y125675D01*
X-119878Y130134D01*
X-119878Y135227D01*
X-121199Y138414D01*
X-102472Y157141D01*
X-99064Y153734D01*
X-93183Y151298D01*
X-86817Y151298D01*
X-80936Y153734D01*
X-76434Y158236D01*
X-73998Y164117D01*
X-73998Y176336D01*
X-61684Y176336D01*
X-61684Y175960D01*
X-54840Y169116D01*
X-45160Y169116D01*
X-38316Y175960D01*
X-38316Y185640D01*
X-45160Y192484D01*
X-54840Y192484D01*
X-61684Y185640D01*
X-61684Y184464D01*
X-73998Y184464D01*
X-73998Y195883D01*
X-76434Y201764D01*
X-80936Y206266D01*
X-86817Y208702D01*
X-93183Y208702D01*
X-99064Y206266D01*
X-103566Y201764D01*
X-106002Y195883D01*
X-106002Y165106D01*
X-126946Y144162D01*
X-130134Y145482D01*
X-135227Y145482D01*
X-139932Y143533D01*
X-143533Y139932D01*
X-145482Y135227D01*
X-145482Y130134D01*
X-143533Y125429D01*
X-139932Y121827D01*
X-135227Y119878D01*
X-130134Y119878D01*
X-125675Y121725D01*
X-127522Y117266D01*
X-127522Y112173D01*
X-125573Y107468D01*
X-121971Y103867D01*
X-117266Y101918D01*
X-112173Y101918D01*
X-108985Y103238D01*
X-60116Y54368D01*
X-60664Y53820D01*
X-60664Y44141D01*
X-60116Y43592D01*
X-84383Y19324D01*
X-86764Y16944D01*
X-86764Y11684D01*
X-87540Y11684D01*
X-94384Y4840D01*
X-94384Y4064D01*
X-150127Y4064D01*
X-151447Y7252D01*
X-155048Y10853D01*
X-159754Y12802D01*
X-164846Y12802D01*
X-169552Y10853D01*
X-173153Y7252D01*
X-175000Y2793D01*
X-176736Y6984D01*
X-176736Y38316D01*
X-175960Y38316D01*
X-169116Y45160D01*
X-169116Y54840D01*
X-175936Y61660D01*
X-175936Y73998D01*
X-164117Y73998D01*
X-158236Y76434D01*
X-153734Y80936D01*
X-151298Y86817D01*
X-151298Y93183D01*
X-153734Y99064D01*
X-158236Y103566D01*
X-164117Y106002D01*
X-195883Y106002D01*
X-201764Y103566D01*
X-206266Y99064D01*
X-208702Y93183D01*
X-208702Y86817D01*
X-206266Y80936D01*
X-201764Y76434D01*
X-195883Y73998D01*
X-184064Y73998D01*
X-184064Y61684D01*
X-185640Y61684D01*
X-192484Y54840D01*
X-192484Y45160D01*
X-185640Y38316D01*
X-184864Y38316D01*
X-184864Y12682D01*
X-185154Y12802D01*
X-190246Y12802D01*
X-194952Y10853D01*
X-198553Y7252D01*
X-200502Y2546D01*
X-200502Y-2546D01*
X-198553Y-7252D01*
X-194952Y-10853D01*
X-190246Y-12802D01*
X-185154Y-12802D01*
X-180448Y-10853D01*
X-176847Y-7252D01*
X-175000Y-2793D01*
X-173153Y-7252D01*
X-169552Y-10853D01*
X-167465Y-11717D01*
X-171683Y-15936D01*
X-198317Y-15936D01*
X-203998Y-10255D01*
X-203998Y15883D01*
X-206434Y21764D01*
X-210936Y26266D01*
X-216817Y28702D01*
X-223183Y28702D01*
X-229064Y26266D01*
X-233566Y21764D01*
X-236002Y15883D01*
X-236002Y-15883D01*
X-233566Y-21764D01*
X-229064Y-26266D01*
X-223183Y-28702D01*
X-216817Y-28702D01*
X-210936Y-26266D01*
X-206434Y-21764D01*
X-205716Y-20031D01*
X-201683Y-24064D01*
X-168317Y-24064D01*
X-165936Y-21683D01*
X-158236Y-13983D01*
X-158236Y-12173D01*
X-155048Y-10853D01*
X-151447Y-7252D01*
X-150127Y-4064D01*
X-94384Y-4064D01*
X-94384Y-4840D01*
X-87540Y-11684D01*
X-86764Y-11684D01*
X-86764Y-16944D01*
X-60116Y-43592D01*
X-60664Y-44141D01*
X-60664Y-53820D01*
X-60116Y-54368D01*
X-108985Y-103238D01*
X-112173Y-101918D01*
X-117266Y-101918D01*
X-121971Y-103867D01*
X-125573Y-107468D01*
X-127522Y-112173D01*
X-127522Y-117266D01*
X-125675Y-121725D01*
X-130134Y-119878D01*
X-135227Y-119878D01*
X-139932Y-121827D01*
X-141179Y-123074D01*
X-159969Y-104284D01*
X-158236Y-103566D01*
X-153734Y-99064D01*
X-151298Y-93183D01*
X-151298Y-86817D01*
X-153734Y-80936D01*
X-158236Y-76434D01*
X-164117Y-73998D01*
X-175936Y-73998D01*
X-175936Y-61660D01*
X-169116Y-54840D01*
X-169116Y-45160D01*
X-175960Y-38316D01*
X-185640Y-38316D01*
X-192484Y-45160D01*
X-192484Y-54840D01*
X-185640Y-61684D01*
X-184064Y-61684D01*
X-184064Y-73998D01*
X-195883Y-73998D01*
X-201764Y-76434D01*
X-206266Y-80936D01*
X-208702Y-86817D01*
X-208702Y-93183D01*
X-206266Y-99064D01*
X-201764Y-103566D01*
X-195883Y-106002D01*
X-169745Y-106002D01*
X-145482Y-130265D01*
X-145482Y-135227D01*
X-143533Y-139932D01*
X-139932Y-143533D01*
X-135227Y-145482D01*
X-130134Y-145482D01*
X-125429Y-143533D01*
X-121827Y-139932D01*
X-119878Y-135227D01*
X-119878Y-130134D01*
X-121725Y-125675D01*
X-117266Y-127522D01*
X-112173Y-127522D01*
X-107468Y-125573D01*
X-103867Y-121971D01*
X-101918Y-117266D01*
X-101918Y-112173D01*
X-103238Y-108985D01*
X-54368Y-60116D01*
X-53820Y-60664D01*
X-44141Y-60664D01*
X-43592Y-60116D01*
X-11684Y-92024D01*
X-11684Y-97540D01*
X-4840Y-104384D01*
X-4064Y-104384D01*
X-4064Y-150127D01*
X-7252Y-151447D01*
X-10853Y-155048D01*
X-12802Y-159754D01*
X-12802Y-164846D01*
X-10853Y-169552D01*
X-7252Y-173153D01*
X-2793Y-175000D01*
X-6984Y-176736D01*
X-38316Y-176736D01*
X-38316Y-175960D01*
X-45160Y-169116D01*
X-54840Y-169116D01*
X-61660Y-175936D01*
X-73998Y-175936D01*
X-73998Y-164117D01*
X-76434Y-158236D01*
X-80936Y-153734D01*
X-86817Y-151298D01*
X-93183Y-151298D01*
X-99064Y-153734D01*
X-103566Y-158236D01*
X-106002Y-164117D01*
X-106002Y-195883D01*
X-103566Y-201764D01*
X-99064Y-206266D01*
X-93183Y-208702D01*
X-86817Y-208702D01*
X-80936Y-206266D01*
X-76434Y-201764D01*
X-73998Y-195883D01*
X-73998Y-184064D01*
X-61684Y-184064D01*
X-61684Y-185640D01*
X-54840Y-192484D01*
X-45160Y-192484D01*
X-38316Y-185640D01*
X-38316Y-184864D01*
X-12682Y-184864D01*
X-12802Y-185154D01*
X-12802Y-190246D01*
X-10853Y-194952D01*
X-7252Y-198553D01*
X-2546Y-200502D01*
X2546Y-200502D01*
X7252Y-198553D01*
X10853Y-194952D01*
X12802Y-190246D01*
X12802Y-185154D01*
X10853Y-180448D01*
X7252Y-176847D01*
X2793Y-175000D01*
X7252Y-173153D01*
X10853Y-169552D01*
X12802Y-164846D01*
X12802Y-159754D01*
X10853Y-155048D01*
X7252Y-151447D01*
X4064Y-150127D01*
X4064Y-104384D01*
X4840Y-104384D01*
X11684Y-97540D01*
X11684Y-87860D01*
X11135Y-87312D01*
X40962Y-57485D01*
X44141Y-60664D01*
X53820Y-60664D01*
X54368Y-60116D01*
X103238Y-108985D01*
X101918Y-112173D01*
X101918Y-117266D01*
X103867Y-121971D01*
X107468Y-125573D01*
X112173Y-127522D01*
X117266Y-127522D01*
X121725Y-125675D01*
X119878Y-130134D01*
X119878Y-135227D01*
X121827Y-139932D01*
X123074Y-141179D01*
X104284Y-159969D01*
X103566Y-158236D01*
X99064Y-153734D01*
X93183Y-151298D01*
X86817Y-151298D01*
X80936Y-153734D01*
X76434Y-158236D01*
X73998Y-164117D01*
X73998Y-176736D01*
X61684Y-176736D01*
X61684Y-175960D01*
X54840Y-169116D01*
X45160Y-169116D01*
X38316Y-175960D01*
X38316Y-185640D01*
X45160Y-192484D01*
X54840Y-192484D01*
X61684Y-185640D01*
X61684Y-184864D01*
X73998Y-184864D01*
X73998Y-195883D01*
X76434Y-201764D01*
X80936Y-206266D01*
X86817Y-208702D01*
X93183Y-208702D01*
X99064Y-206266D01*
X103566Y-201764D01*
X106002Y-195883D01*
X106002Y-169745D01*
X130265Y-145482D01*
X135227Y-145482D01*
X139932Y-143533D01*
X143533Y-139932D01*
X145482Y-135227D01*
X145482Y-130134D01*
X143533Y-125429D01*
X139932Y-121827D01*
X135227Y-119878D01*
X130134Y-119878D01*
X125675Y-121725D01*
X127522Y-117266D01*
X127522Y-112173D01*
X125573Y-107468D01*
X121971Y-103867D01*
X117266Y-101918D01*
X112173Y-101918D01*
X108985Y-103238D01*
X60116Y-54368D01*
X60664Y-53820D01*
X60664Y-44141D01*
X60116Y-43592D01*
X92024Y-11684D01*
X97540Y-11684D01*
X104384Y-4840D01*
X104384Y-4064D01*
X150127Y-4064D01*
X151447Y-7252D01*
X155048Y-10853D01*
X159754Y-12802D01*
X164846Y-12802D01*
X169552Y-10853D01*
X173153Y-7252D01*
X175000Y-2793D01*
X176736Y-6984D01*
X176736Y-38316D01*
X175960Y-38316D01*
X169116Y-45160D01*
X169116Y-54840D01*
X175936Y-61660D01*
X175936Y-73998D01*
X164117Y-73998D01*
X158236Y-76434D01*
X153734Y-80936D01*
X151298Y-86817D01*
X151298Y-93183D01*
X153734Y-99064D01*
X158236Y-103566D01*
X164117Y-106002D01*
X195883Y-106002D01*
X201764Y-103566D01*
X206266Y-99064D01*
X208702Y-93183D01*
X208702Y-86817D01*
X206266Y-80936D01*
X201764Y-76434D01*
X195883Y-73998D01*
X184064Y-73998D01*
X184064Y-61684D01*
X185640Y-61684D01*
X192484Y-54840D01*
X192484Y-45160D01*
X185640Y-38316D01*
X184864Y-38316D01*
X184864Y-12682D01*
X185154Y-12802D01*
X190246Y-12802D01*
X194952Y-10853D01*
X198553Y-7252D01*
X200502Y-2546D01*
X200502Y2546D01*
X198553Y7252D01*
X194952Y10853D01*
X190246Y12802D01*
X185154Y12802D01*
X180448Y10853D01*
X176847Y7252D01*
X175000Y2793D01*
X173153Y7252D01*
X169552Y10853D01*
X164846Y12802D01*
X159754Y12802D01*
X155048Y10853D01*
X151447Y7252D01*
X150127Y4064D01*
X104384Y4064D01*
X104384Y4840D01*
X97540Y11684D01*
X92024Y11684D01*
X60116Y43592D01*
X60664Y44141D01*
X60664Y53820D01*
X60116Y54368D01*
X108985Y103238D01*
X112173Y101918D01*
X117266Y101918D01*
X121971Y103867D01*
X125573Y107468D01*
X127522Y112173D01*
X127522Y117266D01*
X125675Y121725D01*
X130134Y119878D01*
X135227Y119878D01*
X138414Y121199D01*
X157141Y102472D01*
X153734Y99064D01*
X151298Y93183D01*
X151298Y86817D01*
X153734Y80936D01*
X158236Y76434D01*
X164117Y73998D01*
X176736Y73998D01*
X176736Y61684D01*
X175960Y61684D01*
X169116Y54840D01*
X169116Y45160D01*
X175960Y38316D01*
X185640Y38316D01*
X192484Y45160D01*
X192484Y54840D01*
X185640Y61684D01*
X184864Y61684D01*
X184864Y73998D01*
X195883Y73998D01*
X201764Y76434D01*
X206266Y80936D01*
X208702Y86817D01*
X208702Y93183D01*
X206266Y99064D01*
X201764Y103566D01*
X195883Y106002D01*
X165106Y106002D01*
X144162Y126946D01*
X145482Y130134D01*
X145482Y135227D01*
X143533Y139932D01*
X139932Y143533D01*
X135227Y145482D01*
X130134Y145482D01*
X125429Y143533D01*
X121827Y139932D01*
X119878Y135227D01*
X119878Y130134D01*
X121725Y125675D01*
X117266Y127522D01*
X112173Y127522D01*
X107468Y125573D01*
X103867Y121971D01*
X101918Y117266D01*
X101918Y112173D01*
X103238Y108985D01*
X54368Y60116D01*
X53820Y60664D01*
X44141Y60664D01*
X37296Y53820D01*
X37296Y44141D01*
X44141Y37296D01*
X53820Y37296D01*
X54368Y37845D01*
X84195Y8018D01*
X81016Y4840D01*
X81016Y-4840D01*
X84195Y-8018D01*
X54368Y-37845D01*
X53820Y-37296D01*
X44141Y-37296D01*
X37296Y-44141D01*
X37296Y-49656D01*
X5388Y-81565D01*
X4840Y-81016D01*
X-4840Y-81016D01*
X-8018Y-84195D01*
X-37845Y-54368D01*
X-37296Y-53820D01*
X-37296Y-44141D01*
X-44141Y-37296D01*
X-53820Y-37296D01*
X-54368Y-37845D01*
X-78636Y-13577D01*
X-78636Y-11684D01*
X-77860Y-11684D01*
X-71016Y-4840D01*
X-71016Y4840D01*
X-77860Y11684D01*
X-78636Y11684D01*
X-78636Y13577D01*
X-54368Y37845D01*
X-53820Y37296D01*
X-44141Y37296D01*
X-37296Y44141D01*
X-37296Y49656D01*
X-5388Y81565D01*
X-4840Y81016D01*
X4840Y81016D01*
X11684Y87860D01*
X11684Y97540D01*
X4840Y104384D01*
X4064Y104384D01*
X4064Y150127D01*
X7252Y151447D01*
X10853Y155048D01*
X12802Y159754D01*
X12802Y164846D01*
X10853Y169552D01*
X7252Y173153D01*
X2793Y175000D01*
X7252Y176847D01*
X10853Y180448D01*
X12173Y183636D01*
X38316Y183636D01*
X38316Y175960D01*
X45160Y169116D01*
X54840Y169116D01*
X61684Y175960D01*
X61684Y176736D01*
X73998Y176736D01*
X73998Y164117D01*
X76434Y158236D01*
X80936Y153734D01*
X86817Y151298D01*
X93183Y151298D01*
X99064Y153734D01*
X103566Y158236D01*
X106002Y164117D01*
X-50762Y-90884D02*
X-54840Y-90884D01*
X-50762Y-90884D02*
X-50762Y-79962D01*
X-49238Y-79962D01*
X-49238Y-90884D01*
X-45160Y-90884D01*
X-38316Y-84040D01*
X-38316Y-79962D01*
X-49238Y-79962D01*
X-49238Y-78438D01*
X-38316Y-78438D01*
X-38316Y-74360D01*
X-45160Y-67516D01*
X-49238Y-67516D01*
X-49238Y-78438D01*
X-50762Y-78438D01*
X-50762Y-67516D01*
X-54840Y-67516D01*
X-61684Y-74360D01*
X-61684Y-78438D01*
X-50762Y-78438D01*
X-50762Y-79962D01*
X-61684Y-79962D01*
X-61684Y-84040D01*
X-54840Y-90884D01*
X-78438Y50762D02*
X-78438Y61684D01*
X-78438Y50762D02*
X-79962Y50762D01*
X-79962Y61684D01*
X-84040Y61684D01*
X-90884Y54840D01*
X-90884Y50762D01*
X-79962Y50762D01*
X-79962Y49238D01*
X-90884Y49238D01*
X-90884Y45160D01*
X-84040Y38316D01*
X-79962Y38316D01*
X-79962Y49238D01*
X-78438Y49238D01*
X-78438Y38316D01*
X-74360Y38316D01*
X-67516Y45160D01*
X-67516Y49238D01*
X-78438Y49238D01*
X-78438Y50762D01*
X-67516Y50762D01*
X-67516Y54840D01*
X-74360Y61684D01*
X-78438Y61684D01*
X45160Y67516D02*
X49238Y67516D01*
X49238Y78438D01*
X50762Y78438D01*
X50762Y67516D01*
X54840Y67516D01*
X61684Y74360D01*
X61684Y78438D01*
X50762Y78438D01*
X50762Y79962D01*
X61684Y79962D01*
X61684Y84040D01*
X54840Y90884D01*
X50762Y90884D01*
X50762Y79962D01*
X49238Y79962D01*
X49238Y90884D01*
X45160Y90884D01*
X38316Y84040D01*
X38316Y79962D01*
X49238Y79962D01*
X49238Y78438D01*
X38316Y78438D01*
X38316Y74360D01*
X45160Y67516D01*
X79962Y-38316D02*
X79962Y-49238D01*
X78438Y-49238D01*
X78438Y-38316D01*
X74360Y-38316D01*
X67516Y-45160D01*
X67516Y-49238D01*
X78438Y-49238D01*
X78438Y-50762D01*
X67516Y-50762D01*
X67516Y-54840D01*
X74360Y-61684D01*
X78438Y-61684D01*
X78438Y-50762D01*
X79962Y-50762D01*
X79962Y-61684D01*
X84040Y-61684D01*
X90884Y-54840D01*
X90884Y-50762D01*
X79962Y-50762D01*
X79962Y-49238D01*
X90884Y-49238D01*
X90884Y-45160D01*
X84040Y-38316D01*
X79962Y-38316D01*
X-56538Y762D02*
X-56538Y11684D01*
X-56538Y762D02*
X-58062Y762D01*
X-58062Y11684D01*
X-62140Y11684D01*
X-68984Y4840D01*
X-68984Y762D01*
X-58062Y762D01*
X-58062Y-762D01*
X-68984Y-762D01*
X-68984Y-4840D01*
X-62140Y-11684D01*
X-58062Y-11684D01*
X-58062Y-762D01*
X-56538Y-762D01*
X-56538Y-11684D01*
X-52460Y-11684D01*
X-45616Y-4840D01*
X-45616Y-762D01*
X-56538Y-762D01*
X-56538Y762D01*
X-45616Y762D01*
X-45616Y4840D01*
X-52460Y11684D01*
X-56538Y11684D01*
X68062Y11684D02*
X68062Y762D01*
X66538Y762D01*
X66538Y11684D01*
X62460Y11684D01*
X55616Y4840D01*
X55616Y762D01*
X66538Y762D01*
X66538Y-762D01*
X55616Y-762D01*
X55616Y-4840D01*
X62460Y-11684D01*
X66538Y-11684D01*
X66538Y-762D01*
X68062Y-762D01*
X68062Y-11684D01*
X72140Y-11684D01*
X78984Y-4840D01*
X78984Y-762D01*
X68062Y-762D01*
X68062Y762D01*
X78984Y762D01*
X78984Y4840D01*
X72140Y11684D01*
X68062Y11684D01*
X29942Y-31020D02*
X22219Y-38743D01*
X29942Y-31020D02*
X31020Y-32097D01*
X23297Y-39820D01*
X26180Y-42704D01*
X35859Y-42704D01*
X38743Y-39820D01*
X31020Y-32097D01*
X32097Y-31020D01*
X39820Y-38743D01*
X42704Y-35859D01*
X42704Y-26180D01*
X39820Y-23297D01*
X32097Y-31020D01*
X31020Y-29942D01*
X38743Y-22219D01*
X35859Y-19336D01*
X26180Y-19336D01*
X23297Y-22219D01*
X31020Y-29942D01*
X29942Y-31020D01*
X22219Y-23297D01*
X19336Y-26180D01*
X19336Y-35859D01*
X22219Y-38743D01*
X-29942Y31020D02*
X-22219Y38743D01*
X-29942Y31020D02*
X-31020Y32097D01*
X-23297Y39820D01*
X-26180Y42704D01*
X-35859Y42704D01*
X-38743Y39820D01*
X-31020Y32097D01*
X-32097Y31020D01*
X-39820Y38743D01*
X-42704Y35859D01*
X-42704Y26180D01*
X-39820Y23297D01*
X-32097Y31020D01*
X-31020Y29942D01*
X-38743Y22219D01*
X-35859Y19336D01*
X-26180Y19336D01*
X-23297Y22219D01*
X-31020Y29942D01*
X-29942Y31020D01*
X-22219Y23297D01*
X-19336Y26180D01*
X-19336Y35859D01*
X-22219Y38743D01*
X-66973Y-228600D02*
X65740Y-228600D01*
X100159Y-215900D02*
X-100055Y-215900D01*
X-102130Y-203200D02*
X-123969Y-203200D01*
X-77870Y-203200D02*
X77870Y-203200D01*
X102130Y-203200D02*
X123775Y-203200D01*
X-106002Y-190500D02*
X-143135Y-190500D01*
X-73998Y-190500D02*
X-56824Y-190500D01*
X-43176Y-190500D02*
X-12697Y-190500D01*
X12697Y-190500D02*
X43176Y-190500D01*
X56824Y-190500D02*
X73998Y-190500D01*
X106002Y-190500D02*
X142444Y-190500D01*
X-106002Y-177800D02*
X-157267Y-177800D01*
X8205Y-177800D02*
X38316Y-177800D01*
X106002Y-177800D02*
X157267Y-177800D01*
X-106002Y-165100D02*
X-162383Y-165100D01*
X-73998Y-165100D02*
X-12697Y-165100D01*
X12697Y-165100D02*
X73998Y-165100D01*
X110647Y-165100D02*
X162383Y-165100D01*
X-95843Y-152400D02*
X-182938Y-152400D01*
X-84157Y-152400D02*
X-8205Y-152400D01*
X8205Y-152400D02*
X84157Y-152400D01*
X95843Y-152400D02*
X111853Y-152400D01*
X123347Y-152400D02*
X182678Y-152400D01*
X-143629Y-139700D02*
X-192538Y-139700D01*
X-121731Y-139700D02*
X-4064Y-139700D01*
X4064Y-139700D02*
X121731Y-139700D01*
X143629Y-139700D02*
X192898Y-139700D01*
X-148747Y-127000D02*
X-201528Y-127000D01*
X-121176Y-127000D02*
X-118526Y-127000D01*
X-110914Y-127000D02*
X-4064Y-127000D01*
X4064Y-127000D02*
X110914Y-127000D01*
X118526Y-127000D02*
X121176Y-127000D01*
X144184Y-127000D02*
X201133Y-127000D01*
X-161447Y-114300D02*
X-208612Y-114300D01*
X-149953Y-114300D02*
X-127522Y-114300D01*
X-101918Y-114300D02*
X-4064Y-114300D01*
X4064Y-114300D02*
X101918Y-114300D01*
X127522Y-114300D02*
X208997Y-114300D01*
X-203730Y-101600D02*
X-215431Y-101600D01*
X-156270Y-101600D02*
X-107347Y-101600D01*
X-95853Y-101600D02*
X-7624Y-101600D01*
X7624Y-101600D02*
X95853Y-101600D01*
X107347Y-101600D02*
X156270Y-101600D01*
X203730Y-101600D02*
X215087Y-101600D01*
X-208702Y-88900D02*
X-220650Y-88900D01*
X-151298Y-88900D02*
X-94647Y-88900D01*
X-83153Y-88900D02*
X-56824Y-88900D01*
X-50762Y-88900D02*
X-49238Y-88900D01*
X-43176Y-88900D02*
X-14808Y-88900D01*
X11684Y-88900D02*
X43176Y-88900D01*
X49238Y-88900D02*
X50762Y-88900D01*
X56824Y-88900D02*
X83153Y-88900D01*
X94647Y-88900D02*
X151298Y-88900D01*
X208702Y-88900D02*
X220930Y-88900D01*
X-201199Y-76200D02*
X-225570Y-76200D01*
X-158801Y-76200D02*
X-81947Y-76200D01*
X-70453Y-76200D02*
X-61684Y-76200D01*
X-50762Y-76200D02*
X-49238Y-76200D01*
X-38316Y-76200D02*
X-27508Y-76200D01*
X-16013Y-76200D02*
X-7624Y-76200D01*
X-762Y-76200D02*
X762Y-76200D01*
X7624Y-76200D02*
X10753Y-76200D01*
X22247Y-76200D02*
X38316Y-76200D01*
X49238Y-76200D02*
X50762Y-76200D01*
X61684Y-76200D02*
X70453Y-76200D01*
X81947Y-76200D02*
X158801Y-76200D01*
X201199Y-76200D02*
X225369Y-76200D01*
X-184064Y-63500D02*
X-229301Y-63500D01*
X-175936Y-63500D02*
X-69247Y-63500D01*
X-57753Y-63500D02*
X-40208Y-63500D01*
X-28713Y-63500D02*
X-11684Y-63500D01*
X-762Y-63500D02*
X762Y-63500D01*
X11684Y-63500D02*
X23453Y-63500D01*
X34947Y-63500D02*
X57753Y-63500D01*
X69247Y-63500D02*
X175936Y-63500D01*
X184064Y-63500D02*
X229409Y-63500D01*
X-192484Y-50800D02*
X-232495Y-50800D01*
X-169116Y-50800D02*
X-90884Y-50800D01*
X-79962Y-50800D02*
X-78438Y-50800D01*
X-67516Y-50800D02*
X-60664Y-50800D01*
X-37296Y-50800D02*
X36153Y-50800D01*
X60664Y-50800D02*
X67516Y-50800D01*
X78438Y-50800D02*
X79962Y-50800D01*
X90884Y-50800D02*
X169116Y-50800D01*
X192484Y-50800D02*
X232488Y-50800D01*
X-65608Y-38100D02*
X-234963Y-38100D01*
X-43337Y-38100D02*
X-40463Y-38100D01*
X-39178Y-38100D02*
X-37022Y-38100D01*
X-25017Y-38100D02*
X-22862Y-38100D01*
X-21576Y-38100D02*
X21576Y-38100D01*
X22862Y-38100D02*
X25017Y-38100D01*
X37022Y-38100D02*
X39178Y-38100D01*
X40463Y-38100D02*
X43337Y-38100D01*
X65608Y-38100D02*
X176736Y-38100D01*
X184864Y-38100D02*
X234862Y-38100D01*
X-229930Y-25400D02*
X-236535Y-25400D01*
X-210070Y-25400D02*
X-78308Y-25400D01*
X-66813Y-25400D02*
X-41924Y-25400D01*
X-37717Y-25400D02*
X-35562Y-25400D01*
X-26478Y-25400D02*
X-24322Y-25400D01*
X-20116Y-25400D02*
X20116Y-25400D01*
X24322Y-25400D02*
X26478Y-25400D01*
X35562Y-25400D02*
X37717Y-25400D01*
X41924Y-25400D02*
X66813Y-25400D01*
X78308Y-25400D02*
X176736Y-25400D01*
X184864Y-25400D02*
X210256Y-25400D01*
X219238Y-25400D02*
X220762Y-25400D01*
X229744Y-25400D02*
X236749Y-25400D01*
X-236002Y-12700D02*
X-237864Y-12700D01*
X-201553Y-12700D02*
X-190493Y-12700D01*
X-184907Y-12700D02*
X-168447Y-12700D01*
X-158236Y-12700D02*
X-86764Y-12700D01*
X-78636Y-12700D02*
X79513Y-12700D01*
X91008Y-12700D02*
X159507Y-12700D01*
X165093Y-12700D02*
X176736Y-12700D01*
X184864Y-12700D02*
X184907Y-12700D01*
X190493Y-12700D02*
X203998Y-12700D01*
X219238Y-12700D02*
X220762Y-12700D01*
X236002Y-12700D02*
X237533Y-12700D01*
X-236002Y0D02*
X-237864Y0D01*
X-203998Y0D02*
X-200502Y0D01*
X-71016Y0D02*
X-58062Y0D01*
X-56538Y0D02*
X66538Y0D01*
X68062Y0D02*
X81016Y0D01*
X200502Y0D02*
X219238Y0D01*
X220762Y0D02*
X238316Y0D01*
X-236002Y12700D02*
X-237864Y12700D01*
X-203998Y12700D02*
X-190493Y12700D01*
X-184907Y12700D02*
X-184864Y12700D01*
X-176736Y12700D02*
X-165093Y12700D01*
X-159507Y12700D02*
X-86764Y12700D01*
X-78636Y12700D02*
X79513Y12700D01*
X91008Y12700D02*
X159507Y12700D01*
X165093Y12700D02*
X184907Y12700D01*
X190493Y12700D02*
X203998Y12700D01*
X219238Y12700D02*
X220762Y12700D01*
X236002Y12700D02*
X237533Y12700D01*
X-229930Y25400D02*
X-236535Y25400D01*
X-210070Y25400D02*
X-184864Y25400D01*
X-176736Y25400D02*
X-78308Y25400D01*
X-66813Y25400D02*
X-41924Y25400D01*
X-37717Y25400D02*
X-35562Y25400D01*
X-26478Y25400D02*
X-24322Y25400D01*
X-20116Y25400D02*
X20116Y25400D01*
X24322Y25400D02*
X26478Y25400D01*
X35562Y25400D02*
X37717Y25400D01*
X41924Y25400D02*
X66813Y25400D01*
X78308Y25400D02*
X210256Y25400D01*
X219238Y25400D02*
X220762Y25400D01*
X229744Y25400D02*
X236749Y25400D01*
X-184864Y38100D02*
X-234963Y38100D01*
X-176736Y38100D02*
X-65608Y38100D01*
X-43337Y38100D02*
X-40463Y38100D01*
X-39178Y38100D02*
X-37022Y38100D01*
X-25017Y38100D02*
X-22862Y38100D01*
X-21576Y38100D02*
X21576Y38100D01*
X22862Y38100D02*
X25017Y38100D01*
X37022Y38100D02*
X39178Y38100D01*
X40463Y38100D02*
X43337Y38100D01*
X65608Y38100D02*
X234862Y38100D01*
X-192484Y50800D02*
X-232495Y50800D01*
X-169116Y50800D02*
X-90884Y50800D01*
X-79962Y50800D02*
X-78438Y50800D01*
X-67516Y50800D02*
X-60664Y50800D01*
X-36153Y50800D02*
X37296Y50800D01*
X60664Y50800D02*
X67516Y50800D01*
X78438Y50800D02*
X79962Y50800D01*
X90884Y50800D02*
X169116Y50800D01*
X192484Y50800D02*
X232488Y50800D01*
X-184064Y63500D02*
X-229301Y63500D01*
X-175936Y63500D02*
X-69247Y63500D01*
X-57753Y63500D02*
X-34947Y63500D01*
X-23453Y63500D02*
X-11684Y63500D01*
X-762Y63500D02*
X762Y63500D01*
X11684Y63500D02*
X57753Y63500D01*
X69247Y63500D02*
X176736Y63500D01*
X184864Y63500D02*
X229409Y63500D01*
X-201199Y76200D02*
X-225570Y76200D01*
X-158801Y76200D02*
X-81947Y76200D01*
X-70453Y76200D02*
X-61684Y76200D01*
X-50762Y76200D02*
X-49238Y76200D01*
X-38316Y76200D02*
X-22247Y76200D01*
X-10753Y76200D02*
X-7624Y76200D01*
X-762Y76200D02*
X762Y76200D01*
X7624Y76200D02*
X38316Y76200D01*
X49238Y76200D02*
X50762Y76200D01*
X61684Y76200D02*
X70453Y76200D01*
X81947Y76200D02*
X158801Y76200D01*
X201199Y76200D02*
X225369Y76200D01*
X-208702Y88900D02*
X-220650Y88900D01*
X-151298Y88900D02*
X-94647Y88900D01*
X-83153Y88900D02*
X-56824Y88900D01*
X-50762Y88900D02*
X-49238Y88900D01*
X-43176Y88900D02*
X-11684Y88900D01*
X11684Y88900D02*
X43176Y88900D01*
X49238Y88900D02*
X50762Y88900D01*
X56824Y88900D02*
X83153Y88900D01*
X94647Y88900D02*
X151298Y88900D01*
X208702Y88900D02*
X220930Y88900D01*
X-203730Y101600D02*
X-215431Y101600D01*
X-156270Y101600D02*
X-107347Y101600D01*
X-95853Y101600D02*
X-7624Y101600D01*
X7624Y101600D02*
X95853Y101600D01*
X107347Y101600D02*
X156270Y101600D01*
X203730Y101600D02*
X215087Y101600D01*
X-127522Y114300D02*
X-208612Y114300D01*
X-101918Y114300D02*
X-4064Y114300D01*
X4064Y114300D02*
X101918Y114300D01*
X127522Y114300D02*
X145313Y114300D01*
X156808Y114300D02*
X208997Y114300D01*
X-144184Y127000D02*
X-201528Y127000D01*
X-121176Y127000D02*
X-118526Y127000D01*
X-110914Y127000D02*
X-4064Y127000D01*
X4064Y127000D02*
X110914Y127000D01*
X118526Y127000D02*
X121176Y127000D01*
X144184Y127000D02*
X201133Y127000D01*
X-143629Y139700D02*
X-192538Y139700D01*
X-119913Y139700D02*
X-4064Y139700D01*
X4064Y139700D02*
X121731Y139700D01*
X143629Y139700D02*
X192898Y139700D01*
X-118708Y152400D02*
X-182938Y152400D01*
X-107213Y152400D02*
X-95843Y152400D01*
X-84157Y152400D02*
X-8205Y152400D01*
X8205Y152400D02*
X84157Y152400D01*
X95843Y152400D02*
X182678Y152400D01*
X-106008Y165100D02*
X-162383Y165100D01*
X-73998Y165100D02*
X-12697Y165100D01*
X12697Y165100D02*
X73998Y165100D01*
X106002Y165100D02*
X162383Y165100D01*
X-106002Y177800D02*
X-157267Y177800D01*
X-38316Y177800D02*
X-8205Y177800D01*
X8205Y177800D02*
X38316Y177800D01*
X106002Y177800D02*
X157267Y177800D01*
X-106002Y190500D02*
X-143135Y190500D01*
X-73998Y190500D02*
X-56824Y190500D01*
X-43176Y190500D02*
X-12697Y190500D01*
X56824Y190500D02*
X73998Y190500D01*
X106002Y190500D02*
X142444Y190500D01*
X-102130Y203200D02*
X-123969Y203200D01*
X-77870Y203200D02*
X77870Y203200D01*
X102130Y203200D02*
X123775Y203200D01*
X100159Y215900D02*
X-100055Y215900D01*
X-66973Y228600D02*
X65740Y228600D01*
X-228600Y-26458D02*
X-228600Y-66287D01*
X-228600Y26458D02*
X-228600Y66287D01*
X-215900Y-28322D02*
X-215900Y-100727D01*
X-215900Y28322D02*
X-215900Y100727D01*
X-203200Y-102130D02*
X-203200Y-124378D01*
X-203200Y-77870D02*
X-203200Y-22547D01*
X-203200Y-11053D02*
X-203200Y77870D01*
X-203200Y102130D02*
X-203200Y124378D01*
X-190500Y-106002D02*
X-190500Y-142579D01*
X-190500Y-73998D02*
X-190500Y-56824D01*
X-190500Y-43176D02*
X-190500Y-24064D01*
X-190500Y-15936D02*
X-190500Y-12697D01*
X-190500Y12697D02*
X-190500Y43176D01*
X-190500Y56824D02*
X-190500Y73998D01*
X-190500Y106002D02*
X-190500Y142579D01*
X-177800Y-106002D02*
X-177800Y-157267D01*
X-177800Y-38316D02*
X-177800Y-24064D01*
X-177800Y-15936D02*
X-177800Y-8205D01*
X-177800Y106002D02*
X-177800Y157267D01*
X-165100Y-110647D02*
X-165100Y-162383D01*
X-165100Y-73998D02*
X-165100Y-20847D01*
X-165100Y12697D02*
X-165100Y73998D01*
X-165100Y106002D02*
X-165100Y162383D01*
X-152400Y-123347D02*
X-152400Y-182656D01*
X-152400Y-111853D02*
X-152400Y-95843D01*
X-152400Y-84157D02*
X-152400Y-8205D01*
X-152400Y8205D02*
X-152400Y84157D01*
X-152400Y95843D02*
X-152400Y182656D01*
X-139700Y-143629D02*
X-139700Y-192776D01*
X-139700Y-121731D02*
X-139700Y-4064D01*
X-139700Y4064D02*
X-139700Y121731D01*
X-139700Y143629D02*
X-139700Y192776D01*
X-127000Y-144184D02*
X-127000Y-201191D01*
X-127000Y-121176D02*
X-127000Y-118526D01*
X-127000Y-110914D02*
X-127000Y-4064D01*
X-127000Y4064D02*
X-127000Y110914D01*
X-127000Y118526D02*
X-127000Y121176D01*
X-127000Y144184D02*
X-127000Y201191D01*
X-114300Y-127522D02*
X-114300Y-208807D01*
X-114300Y-101918D02*
X-114300Y-4064D01*
X-114300Y4064D02*
X-114300Y101918D01*
X-114300Y127522D02*
X-114300Y145313D01*
X-114300Y156808D02*
X-114300Y208807D01*
X-101600Y-203730D02*
X-101600Y-215131D01*
X-101600Y-156270D02*
X-101600Y-107347D01*
X-101600Y-95853D02*
X-101600Y-4064D01*
X-101600Y4064D02*
X-101600Y95853D01*
X-101600Y107347D02*
X-101600Y156270D01*
X-101600Y203730D02*
X-101600Y215131D01*
X-88900Y-208702D02*
X-88900Y-220873D01*
X-88900Y-151298D02*
X-88900Y-94647D01*
X-88900Y-83153D02*
X-88900Y-56824D01*
X-88900Y-50762D02*
X-88900Y-49238D01*
X-88900Y-43176D02*
X-88900Y-10324D01*
X-88900Y10324D02*
X-88900Y43176D01*
X-88900Y49238D02*
X-88900Y50762D01*
X-88900Y56824D02*
X-88900Y83153D01*
X-88900Y94647D02*
X-88900Y151298D01*
X-88900Y208702D02*
X-88900Y220873D01*
X-76200Y-201199D02*
X-76200Y-225349D01*
X-76200Y-158801D02*
X-76200Y-81947D01*
X-76200Y-70453D02*
X-76200Y-61684D01*
X-76200Y-50762D02*
X-76200Y-49238D01*
X-76200Y-38316D02*
X-76200Y-27508D01*
X-76200Y-16013D02*
X-76200Y-10024D01*
X-76200Y10024D02*
X-76200Y16013D01*
X-76200Y27508D02*
X-76200Y38316D01*
X-76200Y49238D02*
X-76200Y50762D01*
X-76200Y61684D02*
X-76200Y70453D01*
X-76200Y81947D02*
X-76200Y158801D01*
X-76200Y201199D02*
X-76200Y225349D01*
X-63500Y-184064D02*
X-63500Y-229595D01*
X-63500Y-175936D02*
X-63500Y-69247D01*
X-63500Y-57753D02*
X-63500Y-40208D01*
X-63500Y-28713D02*
X-63500Y-10324D01*
X-63500Y-762D02*
X-63500Y762D01*
X-63500Y10324D02*
X-63500Y28713D01*
X-63500Y40208D02*
X-63500Y57753D01*
X-63500Y69247D02*
X-63500Y176336D01*
X-63500Y184464D02*
X-63500Y229595D01*
X-50800Y-192484D02*
X-50800Y-232376D01*
X-50800Y-169116D02*
X-50800Y-90884D01*
X-50800Y-79962D02*
X-50800Y-78438D01*
X-50800Y-67516D02*
X-50800Y-60664D01*
X-50800Y-37296D02*
X-50800Y-10024D01*
X-50800Y-762D02*
X-50800Y762D01*
X-50800Y10024D02*
X-50800Y37296D01*
X-50800Y60664D02*
X-50800Y67516D01*
X-50800Y78438D02*
X-50800Y79962D01*
X-50800Y90884D02*
X-50800Y169116D01*
X-50800Y192484D02*
X-50800Y232376D01*
X-38100Y-184864D02*
X-38100Y-235157D01*
X-38100Y-176736D02*
X-38100Y-65608D01*
X-38100Y-43337D02*
X-38100Y-40463D01*
X-38100Y-39178D02*
X-38100Y-37022D01*
X-38100Y-25017D02*
X-38100Y-22862D01*
X-38100Y-21576D02*
X-38100Y21576D01*
X-38100Y22862D02*
X-38100Y25017D01*
X-38100Y37022D02*
X-38100Y39178D01*
X-38100Y40463D02*
X-38100Y43337D01*
X-38100Y60347D02*
X-38100Y235157D01*
X-25400Y-184864D02*
X-25400Y-236529D01*
X-25400Y-176736D02*
X-25400Y-78308D01*
X-25400Y-66813D02*
X-25400Y-41924D01*
X-25400Y-37717D02*
X-25400Y-35562D01*
X-25400Y-26478D02*
X-25400Y-24322D01*
X-25400Y-20116D02*
X-25400Y20116D01*
X-25400Y24322D02*
X-25400Y26478D01*
X-25400Y35562D02*
X-25400Y37717D01*
X-25400Y41924D02*
X-25400Y61553D01*
X-25400Y73047D02*
X-25400Y236529D01*
X-12700Y-190493D02*
X-12700Y-237706D01*
X-12700Y-184907D02*
X-12700Y-184864D01*
X-12700Y-176736D02*
X-12700Y-165093D01*
X-12700Y-159507D02*
X-12700Y-91008D01*
X-12700Y-79513D02*
X-12700Y74253D01*
X-12700Y85747D02*
X-12700Y159507D01*
X-12700Y165093D02*
X-12700Y184907D01*
X-12700Y190493D02*
X-12700Y237706D01*
X0Y-200502D02*
X0Y-237977D01*
X0Y-81016D02*
X0Y-68062D01*
X0Y-66538D02*
X0Y66538D01*
X0Y68062D02*
X0Y81016D01*
X0Y200502D02*
X0Y237977D01*
X12700Y-190493D02*
X12700Y-237586D01*
X12700Y-184907D02*
X12700Y-165093D01*
X12700Y-159507D02*
X12700Y-85747D01*
X12700Y-74253D02*
X12700Y159507D01*
X12700Y165093D02*
X12700Y183636D01*
X12700Y191764D02*
X12700Y237586D01*
X25400Y-73047D02*
X25400Y-236770D01*
X25400Y-61553D02*
X25400Y-41924D01*
X25400Y-37717D02*
X25400Y-35562D01*
X25400Y-26478D02*
X25400Y-24322D01*
X25400Y-20116D02*
X25400Y20116D01*
X25400Y24322D02*
X25400Y26478D01*
X25400Y35562D02*
X25400Y37717D01*
X25400Y41924D02*
X25400Y183636D01*
X25400Y191764D02*
X25400Y236770D01*
X38100Y-60347D02*
X38100Y-234799D01*
X38100Y-43337D02*
X38100Y-40463D01*
X38100Y-39178D02*
X38100Y-37022D01*
X38100Y-25017D02*
X38100Y-22862D01*
X38100Y-21576D02*
X38100Y21576D01*
X38100Y22862D02*
X38100Y25017D01*
X38100Y37022D02*
X38100Y39178D01*
X38100Y40463D02*
X38100Y43337D01*
X38100Y54624D02*
X38100Y183636D01*
X38100Y191764D02*
X38100Y234799D01*
X50800Y-192484D02*
X50800Y-232827D01*
X50800Y-169116D02*
X50800Y-90884D01*
X50800Y-79962D02*
X50800Y-78438D01*
X50800Y-67516D02*
X50800Y-60664D01*
X50800Y-37296D02*
X50800Y37296D01*
X50800Y60664D02*
X50800Y67516D01*
X50800Y78438D02*
X50800Y79962D01*
X50800Y90884D02*
X50800Y169116D01*
X50800Y192484D02*
X50800Y232827D01*
X63500Y-184864D02*
X63500Y-229237D01*
X63500Y-176736D02*
X63500Y-69247D01*
X63500Y-57753D02*
X63500Y-40208D01*
X63500Y-28713D02*
X63500Y-11684D01*
X63500Y-762D02*
X63500Y762D01*
X63500Y11684D02*
X63500Y28713D01*
X63500Y40208D02*
X63500Y57753D01*
X63500Y69247D02*
X63500Y176736D01*
X63500Y184864D02*
X63500Y229237D01*
X76200Y-201199D02*
X76200Y-225624D01*
X76200Y-158801D02*
X76200Y-81947D01*
X76200Y-70453D02*
X76200Y-61684D01*
X76200Y-50762D02*
X76200Y-49238D01*
X76200Y-38316D02*
X76200Y-27508D01*
X76200Y-16013D02*
X76200Y-7624D01*
X76200Y-762D02*
X76200Y762D01*
X76200Y7624D02*
X76200Y16013D01*
X76200Y27508D02*
X76200Y38316D01*
X76200Y49238D02*
X76200Y50762D01*
X76200Y61684D02*
X76200Y70453D01*
X76200Y81947D02*
X76200Y158801D01*
X76200Y201199D02*
X76200Y225624D01*
X88900Y-208702D02*
X88900Y-220665D01*
X88900Y-151298D02*
X88900Y-94647D01*
X88900Y-83153D02*
X88900Y-56824D01*
X88900Y-50762D02*
X88900Y-49238D01*
X88900Y-43176D02*
X88900Y-14808D01*
X88900Y14808D02*
X88900Y43176D01*
X88900Y49238D02*
X88900Y50762D01*
X88900Y56824D02*
X88900Y83153D01*
X88900Y94647D02*
X88900Y151298D01*
X88900Y208702D02*
X88900Y220665D01*
X101600Y-203730D02*
X101600Y-215290D01*
X101600Y-156270D02*
X101600Y-107347D01*
X101600Y-95853D02*
X101600Y-7624D01*
X101600Y7624D02*
X101600Y95853D01*
X101600Y107347D02*
X101600Y156270D01*
X101600Y203730D02*
X101600Y215290D01*
X114300Y-161447D02*
X114300Y-208671D01*
X114300Y-149953D02*
X114300Y-127522D01*
X114300Y-101918D02*
X114300Y-4064D01*
X114300Y4064D02*
X114300Y101918D01*
X114300Y127522D02*
X114300Y208671D01*
X127000Y-148747D02*
X127000Y-201338D01*
X127000Y-121176D02*
X127000Y-118526D01*
X127000Y-110914D02*
X127000Y-4064D01*
X127000Y4064D02*
X127000Y110914D01*
X127000Y118526D02*
X127000Y121176D01*
X127000Y144184D02*
X127000Y201338D01*
X139700Y-143629D02*
X139700Y-192572D01*
X139700Y-121731D02*
X139700Y-4064D01*
X139700Y4064D02*
X139700Y119913D01*
X139700Y143629D02*
X139700Y192572D01*
X152400Y-95843D02*
X152400Y-182982D01*
X152400Y-84157D02*
X152400Y-8205D01*
X152400Y8205D02*
X152400Y84157D01*
X152400Y95843D02*
X152400Y107213D01*
X152400Y118708D02*
X152400Y182982D01*
X165100Y-106002D02*
X165100Y-162383D01*
X165100Y-73998D02*
X165100Y-12697D01*
X165100Y12697D02*
X165100Y73998D01*
X165100Y106008D02*
X165100Y162383D01*
X177800Y-106002D02*
X177800Y-157267D01*
X177800Y8205D02*
X177800Y38316D01*
X177800Y106002D02*
X177800Y157267D01*
X190500Y-106002D02*
X190500Y-142679D01*
X190500Y-73998D02*
X190500Y-56824D01*
X190500Y-43176D02*
X190500Y-12697D01*
X190500Y12697D02*
X190500Y43176D01*
X190500Y56824D02*
X190500Y73998D01*
X190500Y106002D02*
X190500Y142680D01*
X203200Y-102130D02*
X203200Y-123662D01*
X203200Y-77870D02*
X203200Y77870D01*
X203200Y102130D02*
X203200Y123662D01*
X215900Y-28193D02*
X215900Y-99833D01*
X215900Y-762D02*
X215900Y762D01*
X215900Y28193D02*
X215900Y99833D01*
X228600Y-26231D02*
X228600Y-66044D01*
X228600Y-762D02*
X228600Y762D01*
X228600Y26231D02*
X228600Y66044D01*
M02*
